<svg version="1.1" xmlns="http://www.w3.org/2000/svg" xmlns:xlink="http://www.w3.org/1999/xlink" x="0px" y="0px" viewBox="0 0 36.1 36.1" enable-background="new 0 0 36.1 36.1" xml:space="preserve">
    <g id="ff_disk">
        <path fill="#E81A50" d="M35.4,13.2c-0.5-1.6-1.2-3.2-2-4.6c-0.6-1-1.4-2-2.2-2.8c-0.1,0-0.2-0.1-0.3-0.1C29.4,5,27.7,4.9,26.1,5 c-0.8,0-1.5,0.1-2.3,0.3c-1.1,0.3-2.2,0.8-3,1.5c-2.2,1.8-3.7,5.3-4.2,9.1l-0.1,0.6h-4.6c-0.2,0-0.3,0.1-0.4,0.3L11,19.6h5.4 c-0.1,1.1-0.3,2.1-0.6,3.2c-0.3,0.9-0.7,1.8-1.2,2.7c-0.3,0.6-0.8,1.1-1.3,1.5c-0.8,0.7-2.4,1.3-4,1.3c-1,0-2.5-0.3-3.5-1.6 C4,24.1,3.1,21.1,3.1,18l0,0C3.2,9.7,9.9,3,18.2,3.1c1.6,0,3.3,0.3,4.8,0.8c1-0.3,2.3-0.5,3.7-0.5c0.9,0,1.7,0.1,2.4,0.2 c-3-2.2-6.7-3.5-10.7-3.6C8.4-0.2,0.1,7.8,0,17.8v0.1c0,1.7,0.2,3.4,0.7,5s1.2,3.2,2,4.6c0.6,1,1.4,2,2.2,2.8 c0.1,0,0.2,0.1,0.3,0.1c1.5,0.5,3.1,0.7,4.7,0.6c0.8,0,1.5-0.1,2.3-0.3c1.1-0.3,2.2-0.8,3-1.5c2.2-1.8,3.7-5.3,4.2-9.1l0.1-0.6l0,0 h4.6c0.2,0,0.3-0.1,0.4-0.3l0.5-2.8h-5.4c0.1-1.1,0.3-2.1,0.6-3.2c0.3-0.9,0.7-1.8,1.2-2.7c0.3-0.6,0.8-1.1,1.3-1.5 c0.8-0.7,2.4-1.3,4-1.3c1,0,2.5,0.3,3.5,1.6C32.1,12,33,15,33,18.1l0,0c-0.1,8.2-6.8,14.9-15.1,14.8c-1.7,0-3.3-0.3-4.8-0.8 c-1,0.3-2.3,0.5-3.7,0.5c-0.9,0-1.7-0.1-2.4-0.2c2.9,2.2,6.7,3.6,10.6,3.6H18c9.8,0,17.8-8,18-17.8C36.1,16.6,35.9,14.9,35.4,13.2z "></path>
    </g>
</svg>